<svg width="800" height="400" viewBox="0 0 800 400" xmlns="http://www.w3.org/2000/svg"><defs><pattern id="satori_pattern_id_0" x="0" y="0" width="1" height="1" patternUnits="objectBoundingBox"><linearGradient id="satori_biid_0" x1="0" y1="0" x2="0" y2="1"><stop offset="0%" stop-color="#dbf4ff"/><stop offset="100%" stop-color="#fff1f1"/></linearGradient><rect x="0" y="0" width="800" height="400" fill="url(#satori_biid_0)"/></pattern></defs><rect x="0" y="0" width="800" height="400" fill="url(#satori_pattern_id_0)"/><clipPath id="satori_cp-id-0"><rect x="300" y="48" width="200" height="200"/></clipPath><mask id="satori_om-id-0"><rect x="320" y="68" width="160" height="160" fill="#fff"/><path width="200" height="200" fill="none" stroke="#000" stroke-width="40" d="M300,48 A0,0 0 0 1 300,48 h200 a0,0 0 0 1 0,0 v200 a0,0 0 0 1 0,0 h-200 a0,0 0 0 1 0,0 v-200 A0,0 0 0 1 300,48"/></mask><image x="320" y="68" width="160" height="160" href="data:image/svg+xml;utf8,%3Csvg  xmlns=%22http://www.w3.org/2000/svg%22 width=%22NaN%22 height=%22null%22 viewBox=%220 0 630 630%22%3E%3Crect width=%22630%22 height=%22630%22 fill=%22%23f7df1e%22%3E%3C/rect%3E%3Cpath d=%22m423.2 492.19c12.69 20.72 29.2 35.95 58.4 35.95 24.53 0 40.2-12.26 40.2-29.2 0-20.3-16.1-27.49-43.1-39.3l-14.8-6.35c-42.72-18.2-71.1-41-71.1-89.2 0-44.4 33.83-78.2 86.7-78.2 37.64 0 64.7 13.1 84.2 47.4l-46.1 29.6c-10.15-18.2-21.1-25.37-38.1-25.37-17.34 0-28.33 11-28.33 25.37 0 17.76 11 24.95 36.4 35.95l14.8 6.34c50.3 21.57 78.7 43.56 78.7 93 0 53.3-41.87 82.5-98.1 82.5-54.98 0-90.5-26.2-107.88-60.54zm-209.13 5.13c9.3 16.5 17.76 30.45 38.1 30.45 19.45 0 31.72-7.61 31.72-37.2v-201.3h59.2v202.1c0 61.3-35.94 89.2-88.4 89.2-47.4 0-74.85-24.53-88.81-54.075z%22%3E%3C/path%3E%3C/svg%3E" preserveAspectRatio="none" clip-path="url(#satori_cp-id-0)" mask="url(#satori_om-id-0)"/><clipPath id="satori_bct-id-1"><path d="M217.2 281.6L217.2 261.3L223.3 261.3L223.3 281.6Q223.3 284.4 222.0 286.5Q220.7 288.6 218.5 289.7Q216.3 290.8 213.3 290.8L213.3 290.8Q210.7 290.8 208.6 289.9Q206.4 289.0 205.2 287.1Q203.9 285.2 203.9 282.3L203.9 282.3L210.1 282.3Q210.1 283.4 210.5 284.2Q211.0 285.0 211.8 285.5Q212.6 285.9 213.6 285.9L213.6 285.9Q214.8 285.9 215.6 285.4Q216.4 284.9 216.8 284.0Q217.2 283.0 217.2 281.6L217.2 281.6ZM232.4 290.9L232.4 290.9Q230.3 290.9 228.7 290.1Q227.1 289.4 226.1 287.9Q225.2 286.5 225.2 284.3L225.2 284.3Q225.2 282.5 225.9 281.3Q226.5 280.1 227.7 279.3Q228.8 278.6 230.3 278.2Q231.8 277.8 233.4 277.6L233.4 277.6Q235.3 277.4 236.5 277.3Q237.6 277.1 238.1 276.7Q238.7 276.4 238.7 275.7L238.7 275.7L238.7 275.6Q238.7 274.2 237.8 273.5Q237.0 272.8 235.4 272.8L235.4 272.8Q233.8 272.8 232.8 273.5Q231.9 274.2 231.6 275.3L231.6 275.3L226.0 274.8Q226.4 272.8 227.6 271.4Q228.9 269.9 230.9 269.1Q232.8 268.3 235.5 268.3L235.5 268.3Q237.3 268.3 238.9 268.8Q240.6 269.2 241.9 270.1Q243.2 271.0 244.0 272.4Q244.7 273.8 244.7 275.7L244.7 275.7L244.7 290.4L239.0 290.4L239.0 287.4L238.8 287.4Q238.3 288.4 237.4 289.2Q236.5 290.0 235.3 290.4Q234.1 290.9 232.4 290.9ZM234.2 286.7L234.2 286.7Q235.5 286.7 236.5 286.1Q237.5 285.6 238.1 284.7Q238.7 283.8 238.7 282.6L238.7 282.6L238.7 280.3Q238.4 280.5 237.9 280.7Q237.4 280.8 236.8 280.9Q236.2 281.1 235.6 281.1Q235.0 281.2 234.5 281.3L234.5 281.3Q233.4 281.5 232.6 281.8Q231.9 282.1 231.4 282.7Q231.0 283.3 231.0 284.1L231.0 284.1Q231.0 285.4 231.9 286.0Q232.8 286.7 234.2 286.7ZM260.6 268.6L267.0 268.6L259.3 290.4L252.5 290.4L244.9 268.6L251.3 268.6L255.8 284.2L256.0 284.2L260.6 268.6ZM273.7 290.9L273.7 290.9Q271.6 290.9 270.0 290.1Q268.3 289.4 267.4 287.9Q266.4 286.5 266.4 284.3L266.4 284.3Q266.4 282.5 267.1 281.3Q267.8 280.1 268.9 279.3Q270.1 278.6 271.5 278.2Q273.0 277.8 274.6 277.6L274.6 277.6Q276.5 277.4 277.7 277.3Q278.9 277.1 279.4 276.7Q279.9 276.4 279.9 275.7L279.9 275.7L279.9 275.6Q279.9 274.2 279.1 273.5Q278.2 272.8 276.7 272.8L276.7 272.8Q275.0 272.8 274.1 273.5Q273.1 274.2 272.8 275.3L272.8 275.3L267.2 274.8Q267.6 272.8 268.9 271.4Q270.1 269.9 272.1 269.1Q274.1 268.3 276.7 268.3L276.7 268.3Q278.5 268.3 280.2 268.8Q281.9 269.2 283.2 270.1Q284.5 271.0 285.2 272.4Q286.0 273.8 286.0 275.7L286.0 275.7L286.0 290.4L280.2 290.4L280.2 287.4L280.1 287.4Q279.5 288.4 278.6 289.2Q277.8 290.0 276.5 290.4Q275.3 290.9 273.7 290.9ZM275.4 286.7L275.4 286.7Q276.7 286.7 277.8 286.1Q278.8 285.6 279.4 284.7Q280.0 283.8 280.0 282.6L280.0 282.6L280.0 280.3Q279.7 280.5 279.2 280.7Q278.7 280.8 278.1 280.9Q277.5 281.1 276.9 281.1Q276.2 281.2 275.8 281.3L275.8 281.3Q274.7 281.5 273.9 281.8Q273.1 282.1 272.7 282.7Q272.2 283.3 272.2 284.1L272.2 284.1Q272.2 285.4 273.1 286.0Q274.0 286.7 275.4 286.7ZM310.5 269.7L304.6 269.7Q304.4 268.0 303.1 267.0Q301.8 266.1 299.6 266.1L299.6 266.1Q298.1 266.1 297.0 266.5Q296.0 266.9 295.5 267.7Q294.9 268.4 294.9 269.3L294.9 269.3Q294.9 270.1 295.2 270.7Q295.6 271.3 296.3 271.7Q296.9 272.1 297.7 272.4Q298.6 272.7 299.5 273.0L299.5 273.0L302.1 273.6Q304.0 274.0 305.6 274.7Q307.2 275.4 308.4 276.5Q309.5 277.5 310.2 278.9Q310.8 280.3 310.9 282.1L310.9 282.1Q310.8 284.8 309.5 286.8Q308.2 288.7 305.6 289.8Q303.1 290.9 299.6 290.9L299.6 290.9Q296.0 290.9 293.4 289.8Q290.8 288.7 289.4 286.6Q287.9 284.4 287.8 281.3L287.8 281.3L293.8 281.3Q293.9 282.8 294.6 283.7Q295.4 284.7 296.6 285.2Q297.9 285.7 299.5 285.7L299.5 285.7Q301.1 285.7 302.2 285.2Q303.4 284.8 304.0 284.0Q304.6 283.2 304.6 282.1L304.6 282.1Q304.6 281.1 304.1 280.5Q303.5 279.8 302.4 279.3Q301.3 278.9 299.7 278.5L299.7 278.5L296.5 277.7Q292.9 276.8 290.7 274.9Q288.6 273.0 288.6 269.8L288.6 269.8Q288.6 267.1 290.0 265.1Q291.4 263.2 293.9 262.1Q296.4 261.0 299.6 261.0L299.6 261.0Q302.9 261.0 305.3 262.1Q307.7 263.2 309.1 265.1Q310.4 267.1 310.5 269.7L310.5 269.7ZM322.7 290.9L322.7 290.9Q319.4 290.9 317.0 289.4Q314.5 288.0 313.3 285.5Q312.0 282.9 312.0 279.6L312.0 279.6Q312.0 276.3 313.3 273.7Q314.6 271.2 317.0 269.8Q319.4 268.3 322.7 268.3L322.7 268.3Q325.5 268.3 327.7 269.4Q329.8 270.4 331.1 272.3Q332.3 274.2 332.5 276.7L332.5 276.7L326.8 276.7Q326.5 275.1 325.5 274.1Q324.4 273.1 322.8 273.1L322.8 273.1Q321.4 273.1 320.3 273.8Q319.3 274.6 318.7 276.0Q318.1 277.5 318.1 279.5L318.1 279.5Q318.1 281.6 318.7 283.1Q319.3 284.5 320.3 285.3Q321.4 286.1 322.8 286.1L322.8 286.1Q323.8 286.1 324.7 285.7Q325.5 285.2 326.0 284.4Q326.6 283.6 326.8 282.4L326.8 282.4L332.5 282.4Q332.3 284.9 331.1 286.8Q329.9 288.7 327.8 289.8Q325.6 290.9 322.7 290.9ZM340.4 290.4L334.4 290.4L334.4 268.6L340.2 268.6L340.2 272.4L340.4 272.4Q341.0 270.4 342.4 269.4Q343.9 268.3 345.7 268.3L345.7 268.3Q346.1 268.3 346.7 268.4Q347.2 268.4 347.6 268.5L347.6 268.5L347.6 273.9Q347.2 273.8 346.4 273.7Q345.7 273.6 345.0 273.6L345.0 273.6Q343.7 273.6 342.7 274.1Q341.6 274.7 341.0 275.7Q340.4 276.8 340.4 278.1L340.4 278.1L340.4 290.4ZM354.8 290.4L348.7 290.4L348.7 268.6L354.8 268.6L354.8 290.4ZM351.7 265.8L351.7 265.8Q350.4 265.8 349.4 264.9Q348.5 264.0 348.5 262.7L348.5 262.7Q348.5 261.5 349.4 260.6Q350.4 259.7 351.7 259.7L351.7 259.7Q353.1 259.7 354.0 260.6Q355.0 261.5 355.0 262.7L355.0 262.7Q355.0 264.0 354.0 264.9Q353.1 265.8 351.7 265.8ZM363.6 298.6L357.6 298.6L357.6 268.6L363.5 268.6L363.5 272.3L363.8 272.3Q364.2 271.4 365.0 270.5Q365.7 269.6 367.0 269.0Q368.2 268.3 370.0 268.3L370.0 268.3Q372.4 268.3 374.4 269.6Q376.4 270.8 377.7 273.3Q378.9 275.8 378.9 279.6L378.9 279.6Q378.9 283.2 377.7 285.7Q376.5 288.2 374.5 289.5Q372.5 290.8 370.0 290.8L370.0 290.8Q368.3 290.8 367.0 290.2Q365.8 289.6 365.0 288.7Q364.2 287.9 363.8 286.9L363.8 286.9L363.6 286.9L363.6 298.6ZM363.5 279.5L363.5 279.5Q363.5 281.5 364.0 282.9Q364.6 284.4 365.6 285.2Q366.6 286.0 368.1 286.0L368.1 286.0Q369.6 286.0 370.6 285.2Q371.6 284.3 372.1 282.9Q372.7 281.4 372.7 279.5L372.7 279.5Q372.7 277.6 372.2 276.2Q371.6 274.8 370.6 274.0Q369.6 273.2 368.1 273.2L368.1 273.2Q366.6 273.2 365.6 273.9Q364.6 274.7 364.0 276.2Q363.5 277.6 363.5 279.5ZM379.3 268.6L392.5 268.6L392.5 273.2L379.3 273.2L379.3 268.6ZM382.3 284.5L382.3 263.4L388.4 263.4L388.4 283.7Q388.4 284.6 388.6 285.0Q388.9 285.5 389.4 285.7Q389.8 285.9 390.4 285.9L390.4 285.9Q390.9 285.9 391.3 285.8Q391.7 285.7 391.9 285.7L391.9 285.7L392.9 290.2Q392.4 290.3 391.6 290.5Q390.8 290.7 389.6 290.7L389.6 290.7Q387.4 290.8 385.8 290.2Q384.1 289.5 383.2 288.1Q382.3 286.7 382.3 284.5L382.3 284.5Z M420.4 290.4L401.8 290.4L401.8 261.3L408.0 261.3L408.0 285.4L420.4 285.4L420.4 290.4ZM432.3 290.9L432.3 290.9Q428.9 290.9 426.5 289.5Q424.1 288.0 422.8 285.5Q421.5 283.0 421.5 279.6L421.5 279.6Q421.5 276.2 422.8 273.7Q424.1 271.2 426.5 269.8Q428.9 268.3 432.3 268.3L432.3 268.3Q435.6 268.3 438.0 269.8Q440.4 271.2 441.7 273.7Q443.0 276.2 443.0 279.6L443.0 279.6Q443.0 283.0 441.7 285.5Q440.4 288.0 438.0 289.5Q435.6 290.9 432.3 290.9ZM432.3 286.2L432.3 286.2Q433.8 286.2 434.8 285.3Q435.8 284.5 436.3 283.0Q436.8 281.5 436.8 279.6L436.8 279.6Q436.8 277.7 436.3 276.2Q435.8 274.7 434.8 273.8Q433.8 273.0 432.3 273.0L432.3 273.0Q430.8 273.0 429.7 273.8Q428.7 274.7 428.2 276.2Q427.7 277.7 427.7 279.6L427.7 279.6Q427.7 281.5 428.2 283.0Q428.7 284.5 429.7 285.3Q430.8 286.2 432.3 286.2ZM454.8 299.1L454.8 299.1Q451.8 299.1 449.7 298.3Q447.6 297.5 446.4 296.1Q445.2 294.7 444.8 293.0L444.8 293.0L450.4 292.2Q450.7 292.9 451.2 293.5Q451.8 294.0 452.7 294.4Q453.6 294.7 454.9 294.7L454.9 294.7Q456.9 294.7 458.2 293.8Q459.5 292.8 459.5 290.6L459.5 290.6L459.5 286.6L459.2 286.6Q458.8 287.5 458.0 288.3Q457.2 289.1 456.0 289.6Q454.7 290.1 453.0 290.1L453.0 290.1Q450.5 290.1 448.5 289.0Q446.5 287.8 445.3 285.5Q444.1 283.1 444.1 279.5L444.1 279.5Q444.1 275.8 445.3 273.3Q446.5 270.8 448.6 269.6Q450.6 268.3 453.0 268.3L453.0 268.3Q454.8 268.3 456.0 269.0Q457.3 269.6 458.0 270.5Q458.8 271.4 459.2 272.3L459.2 272.3L459.4 272.3L459.4 268.6L465.4 268.6L465.4 290.7Q465.4 293.4 464.1 295.3Q462.7 297.2 460.3 298.1Q457.9 299.1 454.8 299.1ZM454.9 285.6L454.9 285.6Q456.4 285.6 457.4 284.9Q458.4 284.1 458.9 282.7Q459.5 281.4 459.5 279.5L459.5 279.5Q459.5 277.5 458.9 276.1Q458.4 274.7 457.4 273.9Q456.4 273.2 454.9 273.2L454.9 273.2Q453.4 273.2 452.4 274.0Q451.4 274.8 450.8 276.2Q450.3 277.6 450.3 279.5L450.3 279.5Q450.3 281.3 450.8 282.7Q451.4 284.1 452.4 284.8Q453.4 285.6 454.9 285.6ZM474.3 290.4L468.3 290.4L468.3 268.6L474.3 268.6L474.3 290.4ZM471.3 265.8L471.3 265.8Q470.0 265.8 469.0 264.9Q468.0 264.0 468.0 262.7L468.0 262.7Q468.0 261.5 469.0 260.6Q470.0 259.7 471.3 259.7L471.3 259.7Q472.7 259.7 473.6 260.6Q474.6 261.5 474.6 262.7L474.6 262.7Q474.6 264.0 473.6 264.9Q472.7 265.8 471.3 265.8ZM483.2 277.8L483.2 277.8L483.2 290.4L477.1 290.4L477.1 268.6L482.9 268.6L482.9 272.5L483.2 272.5Q483.9 270.6 485.6 269.5Q487.3 268.3 489.7 268.3L489.7 268.3Q492.0 268.3 493.7 269.3Q495.4 270.3 496.3 272.2Q497.3 274.0 497.3 276.5L497.3 276.5L497.3 290.4L491.2 290.4L491.2 277.6Q491.2 275.6 490.2 274.5Q489.2 273.4 487.3 273.4L487.3 273.4Q486.1 273.4 485.2 273.9Q484.3 274.4 483.7 275.4Q483.2 276.4 483.2 277.8Z M513.6 290.4L507.4 290.4L507.4 261.3L526.7 261.3L526.7 266.4L513.6 266.4L513.6 273.4L525.4 273.4L525.4 278.4L513.6 278.4L513.6 290.4ZM537.0 290.9L537.0 290.9Q533.6 290.9 531.2 289.5Q528.8 288.0 527.5 285.5Q526.2 283.0 526.2 279.6L526.2 279.6Q526.2 276.2 527.5 273.7Q528.8 271.2 531.2 269.8Q533.6 268.3 537.0 268.3L537.0 268.3Q540.3 268.3 542.7 269.8Q545.1 271.2 546.4 273.7Q547.7 276.2 547.7 279.6L547.7 279.6Q547.7 283.0 546.4 285.5Q545.1 288.0 542.7 289.5Q540.3 290.9 537.0 290.9ZM537.0 286.2L537.0 286.2Q538.5 286.2 539.5 285.3Q540.5 284.5 541.0 283.0Q541.5 281.5 541.5 279.6L541.5 279.6Q541.5 277.7 541.0 276.2Q540.5 274.7 539.5 273.8Q538.5 273.0 537.0 273.0L537.0 273.0Q535.5 273.0 534.4 273.8Q533.4 274.7 532.9 276.2Q532.4 277.7 532.4 279.6L532.4 279.6Q532.4 281.5 532.9 283.0Q533.4 284.5 534.4 285.3Q535.5 286.2 537.0 286.2ZM555.7 290.4L549.6 290.4L549.6 268.6L555.5 268.6L555.5 272.4L555.7 272.4Q556.3 270.4 557.7 269.4Q559.1 268.3 561.0 268.3L561.0 268.3Q561.4 268.3 562.0 268.4Q562.5 268.4 562.9 268.5L562.9 268.5L562.9 273.9Q562.5 273.8 561.7 273.7Q561.0 273.6 560.3 273.6L560.3 273.6Q559.0 273.6 557.9 274.1Q556.9 274.7 556.3 275.7Q555.7 276.8 555.7 278.1L555.7 278.1L555.7 290.4ZM570.0 290.4L564.0 290.4L564.0 268.6L569.8 268.6L569.8 272.5L570.0 272.5Q570.7 270.6 572.3 269.4Q573.9 268.3 576.1 268.3L576.1 268.3Q578.3 268.3 579.9 269.5Q581.5 270.6 582.0 272.5L582.0 272.5L582.2 272.5Q582.9 270.6 584.7 269.5Q586.4 268.3 588.8 268.3L588.8 268.3Q591.9 268.3 593.8 270.3Q595.7 272.2 595.7 275.8L595.7 275.8L595.7 290.4L589.7 290.4L589.7 277.0Q589.7 275.1 588.7 274.2Q587.7 273.3 586.3 273.3L586.3 273.3Q584.6 273.3 583.7 274.4Q582.8 275.4 582.8 277.1L582.8 277.1L582.8 290.4L576.9 290.4L576.9 276.8Q576.9 275.2 576.0 274.3Q575.1 273.3 573.6 273.3L573.6 273.3Q572.6 273.3 571.8 273.8Q571.0 274.3 570.5 275.2Q570.0 276.1 570.0 277.3L570.0 277.3L570.0 290.4Z "/></clipPath><defs><pattern id="satori_pattern_id-1_0" x="0" y="0" width="1" height="1" patternUnits="objectBoundingBox"><linearGradient id="satori_biid-1_0" x1="0" y1="0" x2="1" y2="0"><stop offset="0%" stop-color="rgb(121,40,202)"/><stop offset="100%" stop-color="rgb(255,0,128)"/></linearGradient><rect x="0" y="0" width="474" height="58" fill="url(#satori_biid-1_0)"/></pattern></defs><rect x="163" y="248" width="474" height="58" fill="url(#satori_pattern_id-1_0)" clip-path="url(#satori_bct-id-1)"/><clipPath id="satori_bct-id-2"><path d="M277.1 339.1L274.6 339.1L274.6 317.3L277.2 317.3L277.2 325.3L277.4 325.3Q277.6 324.9 278.1 324.2Q278.6 323.6 279.6 323.0Q280.5 322.5 282.1 322.5L282.1 322.5Q284.2 322.5 285.7 323.5Q287.3 324.6 288.2 326.5Q289.1 328.4 289.1 330.9L289.1 330.9Q289.1 333.5 288.2 335.4Q287.3 337.3 285.8 338.4Q284.2 339.4 282.1 339.4L282.1 339.4Q280.6 339.4 279.6 338.9Q278.7 338.4 278.2 337.7Q277.6 337.0 277.4 336.6L277.4 336.6L277.1 336.6L277.1 339.1ZM277.1 330.9L277.1 330.9Q277.1 332.8 277.7 334.2Q278.2 335.6 279.2 336.4Q280.3 337.2 281.8 337.2L281.8 337.2Q283.4 337.2 284.4 336.3Q285.5 335.5 286.0 334.1Q286.6 332.6 286.6 330.9L286.6 330.9Q286.6 329.2 286.0 327.8Q285.5 326.4 284.5 325.6Q283.4 324.8 281.8 324.8L281.8 324.8Q280.3 324.8 279.2 325.5Q278.2 326.3 277.6 327.7Q277.1 329.1 277.1 330.9ZM291.9 345.2L291.9 345.2Q291.3 345.2 290.8 345.1Q290.3 345.0 290.1 344.9L290.1 344.9L290.8 342.7Q291.7 342.9 292.4 342.9Q293.1 342.8 293.6 342.2Q294.2 341.7 294.6 340.4L294.6 340.4L295.1 339.2L289.0 322.7L291.8 322.7L296.3 335.8L296.5 335.8L301.0 322.7L303.7 322.7L296.8 341.5Q296.3 342.7 295.6 343.6Q294.9 344.4 294.0 344.8Q293.1 345.2 291.9 345.2Z M320.2 332.9L320.2 317.3L322.8 317.3L322.8 332.9Q322.8 334.9 322.0 336.4Q321.3 337.9 319.9 338.6Q318.5 339.4 316.6 339.4L316.6 339.4Q314.8 339.4 313.4 338.7Q312.0 338.1 311.2 336.9Q310.4 335.6 310.4 334.0L310.4 334.0L313.0 334.0Q313.0 334.9 313.5 335.6Q313.9 336.3 314.7 336.7Q315.5 337.0 316.6 337.0L316.6 337.0Q317.7 337.0 318.5 336.6Q319.3 336.1 319.7 335.1Q320.2 334.2 320.2 332.9L320.2 332.9ZM332.4 339.4L332.4 339.4Q330.2 339.4 328.5 338.4Q326.8 337.3 325.9 335.4Q325.0 333.5 325.0 331.0L325.0 331.0Q325.0 328.4 325.9 326.5Q326.8 324.6 328.5 323.6Q330.2 322.5 332.4 322.5L332.4 322.5Q334.6 322.5 336.3 323.6Q337.9 324.6 338.9 326.5Q339.8 328.4 339.8 331.0L339.8 331.0Q339.8 333.5 338.9 335.4Q337.9 337.3 336.3 338.4Q334.6 339.4 332.4 339.4ZM332.4 337.2L332.4 337.2Q334.1 337.2 335.2 336.3Q336.3 335.4 336.8 334.0Q337.3 332.6 337.3 331.0L337.3 331.0Q337.3 329.3 336.8 327.9Q336.3 326.5 335.2 325.6Q334.1 324.8 332.4 324.8L332.4 324.8Q330.7 324.8 329.6 325.6Q328.5 326.5 328.0 327.9Q327.5 329.3 327.5 331.0L327.5 331.0Q327.5 332.6 328.0 334.0Q328.5 335.4 329.6 336.3Q330.7 337.2 332.4 337.2ZM344.4 339.1L342.0 339.1L342.0 317.3L344.5 317.3L344.5 325.3L344.7 325.3Q345.0 324.9 345.5 324.2Q346.0 323.6 346.9 323.0Q347.8 322.5 349.4 322.5L349.4 322.5Q351.5 322.5 353.1 323.5Q354.7 324.6 355.5 326.5Q356.4 328.4 356.4 330.9L356.4 330.9Q356.4 333.5 355.5 335.4Q354.7 337.3 353.1 338.4Q351.5 339.4 349.5 339.4L349.5 339.4Q347.9 339.4 347.0 338.9Q346.0 338.4 345.5 337.7Q345.0 337.0 344.7 336.6L344.7 336.6L344.4 336.6L344.4 339.1ZM344.5 330.9L344.5 330.9Q344.5 332.8 345.0 334.2Q345.5 335.6 346.6 336.4Q347.6 337.2 349.1 337.2L349.1 337.2Q350.7 337.2 351.8 336.3Q352.8 335.5 353.4 334.1Q353.9 332.6 353.9 330.9L353.9 330.9Q353.9 329.2 353.4 327.8Q352.9 326.4 351.8 325.6Q350.7 324.8 349.1 324.8L349.1 324.8Q347.6 324.8 346.6 325.5Q345.5 326.3 345.0 327.7Q344.5 329.1 344.5 330.9ZM373.1 322.7L370.5 322.7Q370.3 321.1 369.0 320.2Q367.6 319.3 365.6 319.3L365.6 319.3Q364.2 319.3 363.1 319.8Q362.0 320.2 361.4 321.1Q360.8 321.9 360.8 322.9L360.8 322.9Q360.8 323.8 361.2 324.4Q361.7 325.0 362.3 325.5Q363.0 325.9 363.7 326.1Q364.4 326.4 365.0 326.6L365.0 326.6L367.3 327.1Q368.1 327.4 369.2 327.8Q370.2 328.2 371.2 328.8Q372.1 329.5 372.8 330.6Q373.4 331.6 373.4 333.2L373.4 333.2Q373.4 334.9 372.5 336.4Q371.6 337.8 369.8 338.6Q368.0 339.5 365.5 339.5L365.5 339.5Q363.2 339.5 361.5 338.7Q359.7 338.0 358.8 336.6Q357.8 335.2 357.7 333.5L357.7 333.5L360.4 333.5Q360.5 334.7 361.2 335.5Q362.0 336.3 363.1 336.7Q364.2 337.1 365.5 337.1L365.5 337.1Q367.0 337.1 368.2 336.6Q369.4 336.1 370.1 335.2Q370.8 334.3 370.8 333.1L370.8 333.1Q370.8 332.0 370.2 331.3Q369.6 330.7 368.6 330.2Q367.6 329.8 366.5 329.5L366.5 329.5L363.8 328.7Q361.3 328.0 359.8 326.6Q358.3 325.3 358.3 323.1L358.3 323.1Q358.3 321.2 359.3 319.9Q360.3 318.5 361.9 317.7Q363.6 317.0 365.7 317.0L365.7 317.0Q367.8 317.0 369.5 317.7Q371.1 318.5 372.1 319.8Q373.0 321.1 373.1 322.7L373.1 322.7ZM377.9 339.1L375.4 339.1L375.4 322.7L377.9 322.7L377.9 339.1ZM376.7 320.0L376.7 320.0Q375.9 320.0 375.4 319.5Q374.9 319.0 374.9 318.3L374.9 318.3Q374.9 317.6 375.4 317.1Q375.9 316.6 376.7 316.6L376.7 316.6Q377.4 316.6 377.9 317.1Q378.5 317.6 378.5 318.3L378.5 318.3Q378.5 319.0 377.9 319.5Q377.4 320.0 376.7 320.0ZM383.0 339.1L380.5 339.1L380.5 322.7L382.9 322.7L382.9 325.3L383.2 325.3Q383.7 324.0 384.8 323.2Q386.0 322.5 387.5 322.5L387.5 322.5Q389.2 322.5 390.2 323.2Q391.3 324.0 391.9 325.3L391.9 325.3L392.1 325.3Q392.7 324.0 394.0 323.3Q395.3 322.5 397.0 322.5L397.0 322.5Q399.2 322.5 400.6 323.9Q402.0 325.2 402.0 328.1L402.0 328.1L402.0 339.1L399.5 339.1L399.5 328.1Q399.5 326.3 398.5 325.5Q397.5 324.8 396.2 324.8L396.2 324.8Q394.4 324.8 393.5 325.8Q392.5 326.8 392.5 328.4L392.5 328.4L392.5 339.1L390.0 339.1L390.0 327.9Q390.0 326.5 389.1 325.6Q388.2 324.8 386.7 324.8L386.7 324.8Q385.8 324.8 384.9 325.3Q384.1 325.8 383.5 326.7Q383.0 327.6 383.0 328.9L383.0 328.9L383.0 339.1ZM414.9 332.4L414.9 332.4L414.9 322.7L417.4 322.7L417.4 339.1L414.9 339.1L414.9 336.3L414.7 336.3Q414.2 337.6 412.9 338.4Q411.7 339.3 409.9 339.3L409.9 339.3Q408.3 339.3 407.2 338.6Q406.0 337.9 405.3 336.6Q404.6 335.2 404.6 333.1L404.6 333.1L404.6 322.7L407.1 322.7L407.1 332.9Q407.1 334.7 408.1 335.8Q409.1 336.9 410.7 336.9L410.7 336.9Q411.6 336.9 412.6 336.4Q413.6 335.9 414.2 334.9Q414.9 333.9 414.9 332.4ZM420.0 317.3L422.5 317.3L422.5 339.1L420.0 339.1L420.0 317.3ZM430.0 339.5L430.0 339.5Q428.4 339.5 427.1 338.9Q425.9 338.3 425.1 337.2Q424.4 336.0 424.4 334.4L424.4 334.4Q424.4 333.0 424.9 332.2Q425.5 331.3 426.4 330.8Q427.3 330.3 428.5 330.0Q429.6 329.8 430.7 329.6L430.7 329.6Q432.2 329.4 433.1 329.3Q434.1 329.2 434.5 329.0Q434.9 328.7 434.9 328.1L434.9 328.1L434.9 328.0Q434.9 326.5 434.1 325.6Q433.2 324.7 431.5 324.7L431.5 324.7Q429.7 324.7 428.7 325.5Q427.6 326.3 427.2 327.2L427.2 327.2L424.8 326.3Q425.5 324.8 426.6 324.0Q427.6 323.2 428.9 322.8Q430.2 322.5 431.4 322.5L431.4 322.5Q432.2 322.5 433.2 322.7Q434.3 322.9 435.2 323.5Q436.2 324.0 436.8 325.2Q437.5 326.3 437.5 328.3L437.5 328.3L437.5 339.1L434.9 339.1L434.9 336.9L434.8 336.9Q434.6 337.4 434.0 338.0Q433.4 338.6 432.4 339.0Q431.4 339.5 430.0 339.5ZM430.3 337.2L430.3 337.2Q431.8 337.2 432.9 336.6Q433.9 336.0 434.4 335.1Q434.9 334.2 434.9 333.2L434.9 333.2L434.9 330.9Q434.8 331.0 434.2 331.2Q433.7 331.4 433.0 331.5Q432.3 331.6 431.7 331.7Q431.0 331.7 430.6 331.8L430.6 331.8Q429.6 331.9 428.8 332.2Q427.9 332.5 427.4 333.0Q426.9 333.6 426.9 334.6L426.9 334.6Q426.9 335.9 427.9 336.5Q428.8 337.2 430.3 337.2ZM438.7 322.7L447.2 322.7L447.2 324.8L438.7 324.8L438.7 322.7ZM441.2 335.1L441.2 318.8L443.7 318.8L443.7 334.4Q443.7 335.5 444.0 336.0Q444.3 336.5 444.8 336.7Q445.3 336.9 445.9 336.9L445.9 336.9Q446.3 336.9 446.5 336.8Q446.8 336.8 447.0 336.7L447.0 336.7L447.5 339.0Q447.2 339.1 446.8 339.2Q446.3 339.3 445.6 339.3L445.6 339.3Q444.5 339.3 443.5 338.8Q442.5 338.4 441.8 337.4Q441.2 336.5 441.2 335.1L441.2 335.1ZM455.4 339.4L455.4 339.4Q453.2 339.4 451.6 338.4Q449.9 337.3 449.0 335.4Q448.0 333.5 448.0 331.0L448.0 331.0Q448.0 328.4 449.0 326.5Q449.9 324.6 451.6 323.6Q453.2 322.5 455.4 322.5L455.4 322.5Q457.7 322.5 459.3 323.6Q461.0 324.6 461.9 326.5Q462.9 328.4 462.9 331.0L462.9 331.0Q462.9 333.5 461.9 335.4Q461.0 337.3 459.3 338.4Q457.7 339.4 455.4 339.4ZM455.4 337.2L455.4 337.2Q457.1 337.2 458.2 336.3Q459.3 335.4 459.8 334.0Q460.3 332.6 460.3 331.0L460.3 331.0Q460.3 329.3 459.8 327.9Q459.3 326.5 458.2 325.6Q457.1 324.8 455.4 324.8L455.4 324.8Q453.8 324.8 452.7 325.6Q451.6 326.5 451.1 327.9Q450.5 329.3 450.5 331.0L450.5 331.0Q450.5 332.6 451.1 334.0Q451.6 335.4 452.7 336.3Q453.8 337.2 455.4 337.2ZM467.2 339.1L464.7 339.1L464.7 322.7L467.1 322.7L467.1 325.2L467.3 325.2Q467.7 324.0 468.9 323.2Q470.1 322.5 471.6 322.5L471.6 322.5Q471.8 322.5 472.2 322.5Q472.7 322.5 472.9 322.5L472.9 322.5L472.9 325.1Q472.7 325.0 472.3 325.0Q471.8 324.9 471.3 324.9L471.3 324.9Q470.2 324.9 469.2 325.4Q468.3 325.9 467.7 326.7Q467.2 327.6 467.2 328.7L467.2 328.7L467.2 339.1ZM473.8 339.3L473.8 339.3Q473.0 339.3 472.5 338.7Q471.9 338.1 471.9 337.3L471.9 337.3Q471.9 336.5 472.5 336.0Q473.0 335.4 473.8 335.4L473.8 335.4Q474.6 335.4 475.2 336.0Q475.7 336.5 475.7 337.3L475.7 337.3Q475.7 337.9 475.5 338.3Q475.2 338.7 474.8 339.0Q474.4 339.3 473.8 339.3ZM485.3 339.1L485.3 339.1L478.6 339.1L478.6 317.3L485.6 317.3Q488.8 317.3 491.1 318.6Q493.3 319.9 494.5 322.3Q495.7 324.7 495.7 328.1L495.7 328.1Q495.7 331.5 494.5 334.0Q493.3 336.4 491.0 337.8Q488.7 339.1 485.3 339.1ZM481.2 319.6L481.2 336.7L485.2 336.7Q487.9 336.7 489.6 335.7Q491.4 334.6 492.3 332.7Q493.2 330.8 493.2 328.1L493.2 328.1Q493.2 325.5 492.3 323.6Q491.4 321.7 489.7 320.6Q488.0 319.6 485.5 319.6L485.5 319.6L481.2 319.6ZM504.7 339.4L504.7 339.4Q502.3 339.4 500.6 338.4Q498.9 337.3 498.0 335.4Q497.0 333.5 497.0 331.0L497.0 331.0Q497.0 328.5 498.0 326.6Q498.9 324.7 500.5 323.6Q502.2 322.5 504.4 322.5L504.4 322.5Q505.7 322.5 506.9 322.9Q508.2 323.4 509.2 324.3Q510.2 325.3 510.8 326.8Q511.5 328.4 511.5 330.7L511.5 330.7L511.5 331.8L498.8 331.8L498.8 329.6L508.9 329.6Q508.9 328.2 508.3 327.1Q507.8 326.0 506.8 325.4Q505.8 324.8 504.4 324.8L504.4 324.8Q502.9 324.8 501.8 325.5Q500.7 326.2 500.1 327.4Q499.6 328.6 499.6 330.0L499.6 330.0L499.6 331.4Q499.6 333.3 500.2 334.5Q500.9 335.8 502.0 336.5Q503.2 337.2 504.7 337.2L504.7 337.2Q505.7 337.2 506.5 336.9Q507.3 336.6 507.9 336.0Q508.4 335.5 508.8 334.6L508.8 334.6L511.2 335.3Q510.8 336.5 509.9 337.5Q509.0 338.4 507.7 338.9Q506.3 339.4 504.7 339.4ZM523.4 322.7L526.2 322.7L520.1 339.1L517.5 339.1L511.5 322.7L514.2 322.7L518.7 335.8L518.9 335.8L523.4 322.7Z "/></clipPath><defs><pattern id="satori_pattern_id-2_0" x="0" y="0" width="1" height="1" patternUnits="objectBoundingBox"><linearGradient id="satori_biid-2_0" x1="0" y1="0" x2="1" y2="0"><stop offset="0%" stop-color="rgb(255,77,77)"/><stop offset="100%" stop-color="rgb(249,203,40)"/></linearGradient><rect x="0" y="0" width="336" height="46" fill="url(#satori_biid-2_0)"/></pattern></defs><rect x="232" y="306" width="336" height="46" fill="url(#satori_pattern_id-2_0)" clip-path="url(#satori_bct-id-2)"/></svg>
